<?xml version="1.0" encoding="UTF-8" standalone="no"?>
<!-- Created with Inkscape (http://www.inkscape.org/) -->

<svg
   xmlns:dc="http://purl.org/dc/elements/1.1/"
   xmlns:cc="http://creativecommons.org/ns#"
   xmlns:rdf="http://www.w3.org/1999/02/22-rdf-syntax-ns#"
   xmlns:svg="http://www.w3.org/2000/svg"
   xmlns="http://www.w3.org/2000/svg"
   xmlns:sodipodi="http://sodipodi.sourceforge.net/DTD/sodipodi-0.dtd"
   xmlns:inkscape="http://www.inkscape.org/namespaces/inkscape"
   width="147.39197"
   height="171.14777"
   viewBox="0 0 38.997456 45.282848"
   version="1.1"
   id="svg23489"
   inkscape:version="0.48.5 r10040"
   sodipodi:docname="pill_top.svg">
  <defs
     id="defs23483" />
  <sodipodi:namedview
     id="base"
     pagecolor="#7d848b"
     bordercolor="#666666"
     borderopacity="1.0"
     inkscape:pageopacity="0"
     inkscape:pageshadow="2"
     inkscape:zoom="2.0757512"
     inkscape:cx="92.432081"
     inkscape:cy="8.2716169"
     inkscape:document-units="px"
     inkscape:current-layer="layer1"
     showgrid="false"
     inkscape:pagecheckerboard="false"
     showborder="true"
     units="px"
     inkscape:window-width="1920"
     inkscape:window-height="1017"
     inkscape:window-x="-8"
     inkscape:window-y="-8"
     inkscape:window-maximized="1"
     inkscape:showpageshadow="false"
     guidetolerance="28"
     fit-margin-top="15"
     fit-margin-left="15"
     fit-margin-right="15"
     fit-margin-bottom="15">
    <inkscape:grid
       type="xygrid"
       id="grid24034"
       spacingx="1px"
       spacingy="1px"
       empspacing="8"
       visible="true"
       enabled="true"
       snapvisiblegridlinesonly="true"
       originx="-16.934062px"
       originy="-217.47042px" />
  </sodipodi:namedview>
  <metadata
     id="metadata23486">
    <rdf:RDF>
      <cc:Work
         rdf:about="">
        <dc:format>image/svg+xml</dc:format>
        <dc:type
           rdf:resource="http://purl.org/dc/dcmitype/StillImage" />
        <dc:title />
        <cc:license
           rdf:resource="" />
        <dc:creator>
          <cc:Agent>
            <dc:title>Robert Brooks</dc:title>
          </cc:Agent>
        </dc:creator>
      </cc:Work>
    </rdf:RDF>
  </metadata>
  <g
     inkscape:label="Layer 1"
     inkscape:groupmode="layer"
     id="layer1"
     transform="translate(-4.4804707,-194.17809)">
    <g
       id="g3976"
       gds_color="capsule">
      <g
         id="g5642"
         transform="translate(-20.797714,119.66447)">
        <g
           transform="matrix(1.4261742,0,0,1.4261742,-13.604951,-115.44825)"
           id="g5644">
          <path
             sodipodi:nodetypes="ssccss"
             inkscape:connector-curvature="0"
             id="path5646"
             transform="matrix(0.26458334,0,0,0.26458334,-6.3049604e-6,18.562493)"
             d="m 154.71875,450.09375 c -19.30289,0 -34.84375,15.54086 -34.84375,34.84375 l 0,42.92913 c 0,11.20713 69.6875,11.62461 69.6875,0 l 0,-42.92913 c 0,-19.30289 -15.54086,-34.84375 -34.84375,-34.84375 z"
             style="color:rgb(0, 0, 0);fill:rgb(113, 200, 55);fill-opacity:1;fill-rule:nonzero;stroke:#1e0000;stroke-width:12.62120000000000000;stroke-miterlimit:4;stroke-opacity:1;stroke-dasharray:none;marker:none;visibility:visible;display:inline;overflow:visible" />
          <path
             style="color: rgb(0, 0, 0); fill: rgb(212, 0, 0); fill-opacity: 1; fill-rule: nonzero; stroke: none; stroke-width: 12; marker: none; visibility: visible; display: inline; overflow: visible;"
             d="m 154.71875,450.09375 c -19.30289,0 -34.84375,15.54086 -34.84375,34.84375 l 0,42.92913 c 0,11.20713 69.6875,11.62461 69.6875,0 l 0,-42.92913 c 0,-19.30289 -15.54086,-34.84375 -34.84375,-34.84375 z"
             id="path5648"
             inkscape:connector-curvature="0"
             sodipodi:nodetypes="ssccss"
             transform="matrix(0.26458334,0,0,0.26458334,-6.3049604e-6,18.562493)"
             stroke-width="0" />
          <path
             sodipodi:nodetypes="cssccsscsssc"
             inkscape:connector-curvature="0"
             id="path5650"
             transform="matrix(0.25584263,0,0,0.25584263,-28.043505,49.459283)"
             d="m 269.625,344.71875 c -19.96236,0 -36.03125,16.06889 -36.03125,36.03125 l 0,44.375 c 0,2.31743 2.88961,4.17889 7.5,5.59375 l 0,-46.19778 c 0,-10.26565 2.28723,-27.89987 25.53125,-27.89987 18.96895,0 17.28275,29.41947 17.01562,45.0114 -0.15747,9.19096 0.10549,20.07511 0.0156,31.7425 12.28229,-1.1221 22,-3.83967 22,-8.25 l 0,-44.375 c 0,-19.96236 -16.06889,-36.03125 -36.03125,-36.03125 z"
             style="opacity: 1; color: rgb(0, 0, 0); fill: rgb(255, 0, 0); fill-opacity: 1; fill-rule: nonzero; stroke: none; stroke-width: 12; marker: none; visibility: visible; display: inline; overflow: visible;"
             stroke-width="0" />
        </g>
        <path
           style="color:rgb(0, 0, 0);fill:#ff0000;fill-opacity:1;fill-rule:nonzero;stroke:none;stroke-width:15;marker:none;visibility:visible;display:inline;overflow:visible"
           d="M 58.90625 33.1875 C 55.271958 33.118726 51.43401 34.804682 49 37.875 C 45.459622 42.340916 46.234359 48.045871 50.75 50.59375 C 55.265641 53.141629 61.803372 51.590916 65.34375 47.125 C 68.884128 42.659084 68.109391 36.954129 63.59375 34.40625 C 62.182612 33.610038 60.558201 33.218761 58.90625 33.1875 z M 40.90625 51.96875 C 37.614316 51.96875 34.501831 54.863401 33.9375 58.4375 C 33.373169 62.011599 35.583066 64.90625 38.875 64.90625 C 42.166934 64.90625 45.279419 62.011599 45.84375 58.4375 C 46.408081 54.863401 44.198184 51.96875 40.90625 51.96875 z "
           transform="matrix(0.26458334,0,0,0.26458334,25.278183,74.51362)"
           id="path5654" />
      </g>
    </g>
    <g
       gds_switcgable="spots "
       gds_color="pattern"
       transform="translate(-20.797392,120.44012)"
       id="g5680"
       gds_togglable="spots"
       style="display: none; visibility: collapse;">
      <path
         inkscape:connector-curvature="0"
         style="color: rgb(0, 0, 0); fill: rgb(122, 179, 0); fill-opacity: 1; fill-rule: nonzero; stroke: none; stroke-width: 12; marker: none; visibility: visible; display: inline; overflow: visible;"
         d="m 44.780724,80.086386 c -1.409026,0 -2.76429,0.221663 -4.034896,0.628385 0.173746,1.213292 1.981104,2.166277 4.191992,2.166277 2.148856,0 3.917196,-0.902608 4.175456,-2.067058 -1.357763,-0.471765 -2.810185,-0.727604 -4.332552,-0.727604 z m -6.688998,1.81901 c -3.618942,2.132846 -6.112214,5.945654 -6.424414,10.384897 0.603822,0.436797 1.345816,0.686263 2.191081,0.686263 2.727542,0 5.476563,-2.580826 6.143294,-5.762956 0.501047,-2.391357 -0.315097,-4.438452 -1.909961,-5.308204 z m 14.2875,0.595313 c -0.986628,1.011148 -1.357217,2.714524 -0.818554,4.464844 0.759767,2.468769 3.035855,4.088162 5.076692,3.621484 0.342768,-0.07838 0.652071,-0.219144 0.93431,-0.396875 -0.744778,-3.162041 -2.627243,-5.873239 -5.192448,-7.689453 z m -5.349544,6.854362 c -2.242645,0 -4.059701,1.81705 -4.059701,4.059701 0,2.242637 1.817056,4.0597 4.059701,4.0597 2.242648,0 4.059701,-1.817063 4.059701,-4.0597 0,-2.242651 -1.817053,-4.059701 -4.059701,-4.059701 z m -15.263151,7.42487 c -0.04722,0.0034 -0.0931,0.0088 -0.14056,0.01654 l 0,10.599869 c 0.316539,0.0617 0.641326,0.0342 0.967383,-0.11576 1.523434,-0.70056 2.445403,-3.58299 2.058789,-6.44095 -0.338288,-2.500713 -1.56337,-4.15519 -2.885612,-4.059699 z m 25.623242,0.07441 c -0.269002,0.01074 -0.539096,0.04684 -0.810286,0.115755 -2.169525,0.551305 -3.485804,2.827616 -2.935222,5.076694 0.495824,2.02539 2.337433,3.32838 4.282943,3.16673 l 0,-8.342642 c -0.17862,-0.01778 -0.355348,-0.02381 -0.537435,-0.01654 z m -17.991666,0.735877 c -1.022829,0 -1.852084,0.904393 -1.852084,2.025716 0,1.121326 0.829255,2.033986 1.852084,2.033986 1.022831,0 1.852083,-0.91266 1.852083,-2.033986 0,-1.121323 -0.829252,-2.025716 -1.852083,-2.025716 z m 5.159374,8.119402 c -3.545802,0 -6.416145,2.87034 -6.416145,6.41614 0,0.0415 -7.94e-4,0.0827 0,0.12403 3.90163,0.52034 8.854506,0.55694 12.832291,0.091 0.0024,-0.0715 0.0083,-0.14293 0.0083,-0.21498 0,-3.5458 -2.878608,-6.41614 -6.424414,-6.41614 z"
         id="path5682"
         stroke-width="0" />
      <path
         inkscape:connector-curvature="0"
         style="color: rgb(0, 0, 0); fill: rgb(150, 220, 0); fill-opacity: 1; fill-rule: nonzero; stroke: none; stroke-width: 12; marker: none; visibility: visible; display: inline; overflow: visible;"
         d="m 169.25,232.5625 c -1.72058,0 -3.41922,0.081 -5.09375,0.25 -0.83727,0.0845 -1.67578,0.18727 -2.5,0.3125 -0.0731,0.0112 -0.14574,0.0197 -0.21875,0.0312 -2.39562,0.37495 -4.73269,0.92279 -7,1.625 -0.14823,0.0459 -0.28988,0.109 -0.4375,0.15625 0.68239,4.57121 7.50607,8.15625 15.84375,8.15625 8.10383,0 14.7823,-3.39419 15.78125,-7.78125 -0.51888,-0.17992 -1.03586,-0.36814 -1.5625,-0.53125 -1.55784,-0.48248 -3.16096,-0.8889 -4.78125,-1.21875 -0.79002,-0.16083 -1.57159,-0.31441 -2.375,-0.4375 -0.0203,-0.003 -0.0421,0.003 -0.0625,0 -0.0203,-0.003 -0.0422,0.003 -0.0625,0 -0.80425,-0.12118 -1.62084,-0.23007 -2.4375,-0.3125 -1.67453,-0.16903 -3.37317,-0.25 -5.09375,-0.25 z m -25.28125,6.84375 c -0.0525,0.0309 -0.10385,0.0626 -0.15625,0.0937 -0.60601,0.36017 -1.19244,0.74019 -1.78125,1.125 -0.18891,0.12346 -0.37541,0.24905 -0.5625,0.375 -0.012,0.008 -0.0193,0.0232 -0.0312,0.0312 -0.46252,0.31195 -0.92386,0.64183 -1.375,0.96875 -0.21159,0.15334 -0.44721,0.28092 -0.65625,0.4375 -0.39785,0.29802 -0.76783,0.62792 -1.15625,0.9375 -0.37801,0.30129 -0.75616,0.59425 -1.125,0.90625 -0.32093,0.2714 -0.62368,0.56441 -0.9375,0.84375 -0.2718,0.24208 -0.54614,0.47081 -0.8125,0.71875 -0.39935,0.37137 -0.80066,0.74076 -1.1875,1.125 -0.0884,0.088 -0.16223,0.19263 -0.25,0.28125 -0.95608,0.96538 -1.9068,1.95873 -2.78125,3 -0.13863,0.16508 -0.26974,0.33309 -0.40625,0.5 -0.20965,0.25642 -0.42043,0.52056 -0.625,0.78125 -0.31613,0.40286 -0.63372,0.80594 -0.9375,1.21875 -0.40172,0.54591 -0.77669,1.12474 -1.15625,1.6875 -0.34421,0.51063 -0.67456,1.00724 -1,1.53125 -0.27485,0.44255 -0.55134,0.89196 -0.8125,1.34375 -0.23288,0.40225 -0.46568,0.80939 -0.6875,1.21875 -0.18693,0.34556 -0.35234,0.71201 -0.53125,1.0625 -0.23597,0.46179 -0.49694,0.9049 -0.71875,1.375 -0.0139,0.0294 -0.0174,0.0643 -0.0312,0.0937 -0.40007,0.85263 -0.77275,1.71511 -1.125,2.59375 -0.0294,0.0733 -0.0647,0.14526 -0.0937,0.21875 -0.33146,0.83844 -0.6197,1.70206 -0.90625,2.5625 -0.0281,0.0844 -0.0661,0.16538 -0.0937,0.25 -0.19938,0.60968 -0.38623,1.22375 -0.5625,1.84375 -0.12059,0.42342 -0.23414,0.85323 -0.34375,1.28125 -0.2036,0.79504 -0.39757,1.59611 -0.5625,2.40625 -0.0901,0.44475 -0.17178,0.89468 -0.25,1.34375 -0.091,0.52009 -0.17519,1.03687 -0.25,1.5625 -0.0483,0.34125 -0.0836,0.68775 -0.125,1.03125 -0.0785,0.65062 -0.13417,1.31042 -0.1875,1.96875 -0.0144,0.17804 -0.0499,0.35267 -0.0625,0.53125 2.28216,1.65089 5.08655,2.59375 8.28125,2.59375 0.72739,0 1.46209,-0.0618 2.1875,-0.15625 0.94428,-11.35269 5.14259,-25.29061 21.28125,-30.25 -0.82825,-5.14328 -3.48914,-9.26724 -7.46875,-11.4375 z m 54,2.25 c -3.72899,3.82166 -5.12964,10.25962 -3.09375,16.875 2.87156,9.33078 11.4741,15.45132 19.1875,13.6875 1.2955,-0.29624 2.46452,-0.82826 3.53125,-1.5 -0.0717,-0.30421 -0.14155,-0.60428 -0.21875,-0.90625 -0.1121,-0.43774 -0.22017,-0.87958 -0.34375,-1.3125 -0.0478,-0.16751 -0.10677,-0.33324 -0.15625,-0.5 -0.14561,-0.4908 -0.30855,-0.98455 -0.46875,-1.46875 -0.0238,-0.0719 -0.0384,-0.147 -0.0625,-0.21875 -0.0179,-0.0534 -0.0444,-0.10294 -0.0625,-0.15625 -0.21821,-0.64224 -0.44407,-1.27633 -0.6875,-1.90625 -0.008,-0.0217 -0.0228,-0.0408 -0.0312,-0.0625 -0.1712,-0.44115 -0.34793,-0.87765 -0.53125,-1.3125 -0.21198,-0.50288 -0.42838,-1.00583 -0.65625,-1.5 -0.20299,-0.44004 -0.40963,-0.87962 -0.625,-1.3125 -0.31877,-0.64072 -0.65473,-1.25055 -1,-1.875 -0.0155,-0.028 -0.0157,-0.0658 -0.0312,-0.0937 -0.30816,-0.55471 -0.6402,-1.11498 -0.96875,-1.65625 -0.0589,-0.0972 -0.12793,-0.18452 -0.1875,-0.28125 -0.20749,-0.33669 -0.40975,-0.66875 -0.625,-1 -0.18978,-0.29225 -0.36677,-0.58707 -0.5625,-0.875 -0.13769,-0.20242 -0.2969,-0.3935 -0.4375,-0.59375 -1.13927,-1.62261 -2.36654,-3.18507 -3.6875,-4.65625 -0.0638,-0.071 -0.12334,-0.14811 -0.1875,-0.21875 -0.431,-0.47441 -0.89483,-0.94896 -1.34375,-1.40625 -0.5186,-0.52818 -1.05205,-1.02663 -1.59375,-1.53125 -0.45048,-0.41964 -0.90908,-0.84717 -1.375,-1.25 -0.0945,-0.0816 -0.18614,-0.16905 -0.28125,-0.25 -0.19711,-0.16785 -0.394,-0.3352 -0.59375,-0.5 -0.37179,-0.30657 -0.74419,-0.61043 -1.125,-0.90625 -0.36713,-0.28539 -0.74971,-0.53728 -1.125,-0.8125 -0.22276,-0.16324 -0.43066,-0.34041 -0.65625,-0.5 z m -11.5625,28.5625 c 1.70154,7.25197 2.23286,15.50987 2.34375,23.34375 2.67637,-2.76174 4.34375,-6.50535 4.34375,-10.65625 0,-5.2725 -2.63869,-9.92559 -6.6875,-12.6875 z M 120.0625,295.625 c -0.16811,0.0121 -0.33165,0.0359 -0.5,0.0625 l 0,40.0625 c 1.18677,0.22556 2.40308,0.12448 3.625,-0.4375 2.97196,-1.36667 5.32558,-4.94854 6.71875,-9.5625 l 0,-19.75 c -1.9748,-6.60728 -5.78332,-10.66824 -9.84375,-10.375 z m 96.84375,0.28125 c -1.0167,0.0406 -2.03753,0.17703 -3.0625,0.4375 -8.19978,2.08367 -13.17469,10.68705 -11.09375,19.1875 1.87398,7.65502 8.83439,12.57971 16.1875,11.96875 l 0,-31.53125 c -0.6751,-0.0672 -1.34305,-0.09 -2.03125,-0.0625 z M 188.625,340.1875 c 0.0236,4.76396 0.007,9.61356 -0.0312,14.625 1.38642,-0.12666 2.72888,-0.28128 4.0625,-0.4375 0.0101,-0.24946 0.0312,-0.4986 0.0312,-0.75 0,-4.96892 -1.49715,-9.59334 -4.0625,-13.4375 z"
         transform="matrix(0.26458334,0,0,0.26458334,-6.3049604e-6,18.562493)"
         id="path5684"
         stroke-width="0" />
    </g>
    <g
       transform="translate(-20.797392,120.44739)"
       id="g5674"
       gds_color="pattern"
       gds_togglable="stars"
       style="display: none; visibility: collapse;">
      <path
         inkscape:connector-curvature="0"
         style="color: rgb(0, 0, 0); fill: rgb(122, 179, 0); fill-opacity: 1; fill-rule: nonzero; stroke: none; stroke-width: 18; marker: none; visibility: visible; display: inline; overflow: visible;"
         d="m 188.75,236.5 c 0.0966,3.2544 0.2899,6.67557 -0.0625,7.25 -0.68402,1.11498 -12.12981,5.5326 -11.875,6.90625 0.25481,1.37365 13.30994,5.70487 14.40625,6.8125 1.09631,1.10763 4.10594,12.98771 5.625,13.40625 1.51906,0.41854 8.16967,-8.81958 9.53125,-9.25 0.72334,-0.22866 4.81373,0.49895 8.59375,1.0625 C 209.95395,250.90506 200.53596,241.50823 188.75,236.5 z m -47,4.28125 c -8.16813,5.41258 -14.6054,13.17593 -18.40625,22.34375 2.63105,-0.47739 5.33808,-1.04456 5.84375,-0.84375 0.99874,0.39661 5.95912,8.81235 7.0625,8.4375 1.10338,-0.37485 3.15093,-11.18437 3.9375,-12.1875 0.78657,-1.00313 10.26819,-4.87675 10.4375,-6.125 0.16931,-1.24825 -8.20614,-5.32717 -8.71875,-6.34375 -0.22279,-0.44183 -0.18568,-2.79946 -0.15625,-5.28125 z M 161.15625,268.25 c -1.88074,0.47223 -4.03727,17.16874 -5.28125,18.65625 -1.24398,1.48751 -17.30544,6.56538 -17.4375,8.5 -0.13206,1.93462 15.0947,9.16974 16.125,10.8125 1.0303,1.64276 0.91963,18.46407 2.71875,19.1875 1.79912,0.72343 13.33801,-11.49652 15.21875,-11.96875 1.88074,-0.47223 17.88102,4.83126 19.125,3.34375 1.24398,-1.48751 -6.81956,-16.25288 -6.6875,-18.1875 0.13206,-1.93462 10.12405,-15.48224 9.09375,-17.125 -1.0303,-1.64276 -17.57588,1.44218 -19.375,0.71875 -1.79912,-0.72343 -11.61926,-14.40973 -13.5,-13.9375 z m 56.5625,24.96875 c -1.01648,0.077 -2.92853,13.50874 -3.65625,14.53125 -0.72772,1.02251 -9.46401,2.54757 -9.625,4.125 -0.16099,1.57743 7.53278,10.09517 8,11.625 0.46722,1.52983 -0.38573,15.41462 0.53125,16.3125 0.60293,0.59037 3.62751,-2.66081 5.96875,-5.03125 l 0,-39.75 c -0.53256,-1.09016 -0.98064,-1.83054 -1.21875,-1.8125 z m -98.1875,15.25 0,32.15625 c 1.71473,1.50148 5.54475,5.81452 6.0625,5.1875 0.62256,-0.75396 -0.87708,-11.99543 -0.625,-13.25 0.25208,-1.25457 5.43343,-8.38027 5.21875,-9.65625 -0.21468,-1.27598 -6.74431,-2.28375 -7.34375,-3.09375 -0.53787,-0.72681 -2.3909,-9.5178 -3.3125,-11.34375 z m 57.03125,30.375 c -0.90875,0.051 -3.33036,8.94776 -4.03125,9.625 -0.70089,0.67724 -8.52469,1.70522 -8.75,2.75 -0.12589,0.58375 1.7681,2.56486 3.5625,4.40625 6.72172,0.0765 13.45925,-0.10136 19.78125,-0.625 1.69191,-2.16196 3.70475,-4.69565 3.5,-5.3125 -0.33633,-1.01325 -8.26175,-1.12406 -9.03125,-1.71875 -0.7695,-0.59469 -4.1225,-9.17601 -5.03125,-9.125 z"
         transform="matrix(0.26458334,0,0,0.26458334,-6.3049604e-6,18.562493)"
         id="path5676"
         stroke-width="0" />
      <path
         inkscape:connector-curvature="0"
         style="color: rgb(0, 0, 0); fill: rgb(150, 220, 0); fill-opacity: 1; fill-rule: nonzero; stroke: none; stroke-width: 12; marker: none; visibility: visible; display: inline; overflow: visible;"
         d="m 188.75,236.5 c 0.0966,3.2544 0.2899,6.67557 -0.0625,7.25 -0.68402,1.11498 -12.12981,5.5326 -11.875,6.90625 0.25481,1.37365 13.30994,5.70487 14.40625,6.8125 1.09631,1.10763 4.10594,12.98771 5.625,13.40625 1.51906,0.41854 8.16967,-8.81958 9.53125,-9.25 0.72131,-0.22802 4.79138,0.49962 8.5625,1.0625 -0.13356,-0.31314 -0.26649,-0.62775 -0.40625,-0.9375 -0.16229,-0.36021 -0.29821,-0.73826 -0.46875,-1.09375 -0.0265,-0.0551 -0.0671,-0.10125 -0.0937,-0.15625 -0.3209,-0.6627 -0.65097,-1.32318 -1,-1.96875 -0.0287,-0.053 -0.0649,-0.10341 -0.0937,-0.15625 -0.0805,-0.14761 -0.16805,-0.29082 -0.25,-0.4375 -0.30306,-0.54138 -0.615,-1.0965 -0.9375,-1.625 -0.39238,-0.64366 -0.79832,-1.25131 -1.21875,-1.875 -0.0209,-0.031 -0.0415,-0.0628 -0.0625,-0.0937 -0.42682,-0.63004 -0.85789,-1.26632 -1.3125,-1.875 -0.0175,-0.0235 -0.0449,-0.0391 -0.0625,-0.0625 -0.45558,-0.60774 -0.92381,-1.22702 -1.40625,-1.8125 -0.0188,-0.0228 -0.0436,-0.0397 -0.0625,-0.0625 -0.12313,-0.1489 -0.25017,-0.29009 -0.375,-0.4375 -0.38383,-0.45293 -0.75664,-0.90507 -1.15625,-1.34375 -0.52988,-0.58198 -1.06818,-1.13149 -1.625,-1.6875 -1.11709,-1.11709 -2.28047,-2.18092 -3.5,-3.1875 -0.006,-0.005 -0.025,0.005 -0.0312,0 -0.60671,-0.50028 -1.21321,-0.9973 -1.84375,-1.46875 -0.007,-0.005 -0.0243,0.005 -0.0312,0 -0.61884,-0.46222 -1.23419,-0.91024 -1.875,-1.34375 -0.0191,-0.0129 -0.0433,-0.0183 -0.0625,-0.0312 -0.1867,-0.12592 -0.37399,-0.25157 -0.5625,-0.375 -0.45402,-0.29694 -0.9107,-0.59266 -1.375,-0.875 -0.67665,-0.41147 -1.36486,-0.80787 -2.0625,-1.1875 -0.0327,-0.0178 -0.061,-0.0448 -0.0937,-0.0625 -0.66348,-0.35952 -1.34979,-0.70149 -2.03125,-1.03125 -0.0417,-0.0201 -0.0833,-0.0425 -0.125,-0.0625 -0.68234,-0.32782 -1.3631,-0.64033 -2.0625,-0.9375 z m -47,4.3125 c -0.77015,0.51087 -1.5423,1.04182 -2.28125,1.59375 -0.63736,0.47606 -1.26196,0.96325 -1.875,1.46875 -0.55599,0.45846 -1.08982,0.92437 -1.625,1.40625 -0.0549,0.0494 -0.10156,0.10656 -0.15625,0.15625 -0.58769,0.53393 -1.15743,1.06368 -1.71875,1.625 -0.56132,0.56132 -1.12232,1.16231 -1.65625,1.75 -0.51869,0.57093 -1.03936,1.12389 -1.53125,1.71875 -0.0144,0.0175 -0.0168,0.045 -0.0312,0.0625 -0.45262,0.55006 -0.88353,1.11782 -1.3125,1.6875 -0.13386,0.17739 -0.27473,0.352 -0.40625,0.53125 -0.15679,0.21408 -0.31533,0.43955 -0.46875,0.65625 -0.22439,0.31641 -0.43915,0.64687 -0.65625,0.96875 -0.27769,0.41173 -0.54696,0.82955 -0.8125,1.25 -0.1771,0.28113 -0.35966,0.55881 -0.53125,0.84375 -0.20671,0.34242 -0.42639,0.68345 -0.625,1.03125 -0.15218,0.26712 -0.29014,0.54227 -0.4375,0.8125 -0.0291,0.0532 -0.0649,0.10296 -0.0937,0.15625 -0.21879,0.40475 -0.41715,0.80724 -0.625,1.21875 -0.27786,0.55012 -0.55457,1.12571 -0.8125,1.6875 -0.21818,0.4748 -0.45272,0.95468 -0.65625,1.4375 -0.0347,0.0825 -0.0595,0.1673 -0.0937,0.25 2.63105,-0.47739 5.33808,-1.04456 5.84375,-0.84375 0.55577,0.2207 2.338,2.897 4,5.1875 2.75376,-6.7602 7.75209,-12.86843 16.65625,-16.09375 -2.06212,-1.71481 -7.52639,-4.49721 -7.9375,-5.3125 -0.22177,-0.4398 -0.18561,-2.78076 -0.15625,-5.25 z M 190.8125,281 c -0.80602,0.0219 -1.71262,0.0771 -2.6875,0.15625 0.34055,3.5338 0.5135,7.12132 0.59375,10.65625 2.77052,-4.41666 5.91827,-9.37788 5.3125,-10.34375 -0.25758,-0.41069 -1.4946,-0.51565 -3.21875,-0.46875 z m 26.90625,12.21875 c -1.01648,0.077 -2.92853,13.50874 -3.65625,14.53125 -0.72772,1.02251 -9.46401,2.54757 -9.625,4.125 -0.16099,1.57743 7.53278,10.09517 8,11.625 0.46722,1.52983 -0.38573,15.41462 0.53125,16.3125 0.60293,0.59037 3.62751,-2.66081 5.96875,-5.03125 l 0,-39.75 c -0.53256,-1.09016 -0.98064,-1.83054 -1.21875,-1.8125 z m -29.09375,14.5 c -0.0227,1.08415 -0.0453,2.30582 -0.0625,3.3125 -0.0318,1.8534 -0.0209,3.86318 -0.0312,5.8125 1.61728,0.25654 2.79305,0.29707 3.09375,-0.0625 0.62881,-0.75191 -1.13308,-4.89737 -3,-9.0625 z m -69.0625,0.84375 0,32.09375 c 1.72706,1.52175 5.51609,5.78014 6.03125,5.15625 0.62256,-0.75396 -0.87708,-11.99543 -0.625,-13.25 0.21295,-1.05982 3.91382,-6.28273 4.9375,-8.65625 l 0,-1.40625 c -1.27439,-1.08867 -6.52729,-1.96429 -7.0625,-2.6875 -0.53148,-0.71818 -2.34905,-9.28434 -3.28125,-11.25 z m 69.03125,40.40625 c -0.002,1.37611 0.008,2.731 0,4.125 1.1834,-1.55322 2.17676,-2.96786 2.03125,-3.40625 -0.10223,-0.30799 -0.94073,-0.53858 -2.03125,-0.71875 z"
         transform="matrix(0.26458334,0,0,0.26458334,-6.3049604e-6,18.562493)"
         id="path5678"
         stroke-width="0" />
    </g>
    <g
       transform="translate(-20.817313,120.58284)"
       id="g5668"
       gds_color="pattern"
       gds_togglable="stripes"
       style="visibility: collapse; display: none;" />
    <g
       transform="translate(-20.798389,115.99838)"
       id="g5656"
       gds_color="pattern"
       gds_togglable="band"
       style="display: none; visibility: collapse;">
      <path
         style="color: rgb(0, 0, 0); fill: rgb(122, 179, 0); fill-opacity: 1; fill-rule: nonzero; stroke: none; stroke-width: 12; marker: none; visibility: visible; display: inline; overflow: visible;"
         d="m 57.927208,97.408373 c 0.266081,3.747167 -26.162212,4.912047 -26.301237,0.14056 l 0,11.889717 c 0,4.22892 26.301237,4.38645 26.301237,0 z"
         id="path5658"
         inkscape:connector-curvature="0"
         sodipodi:nodetypes="ccssc"
         stroke-width="0" />
      <path
         inkscape:connector-curvature="0"
         style="color: rgb(0, 0, 0); fill: rgb(150, 220, 0); fill-opacity: 1; fill-rule: nonzero; stroke: none; stroke-width: 12; marker: none; visibility: visible; display: inline; overflow: visible;"
         d="m 57.927208,97.408373 c 0.09875,1.390669 -3.482096,2.42734 -8.02845,2.935217 -0.0033,0.16303 -0.0056,0.35685 -0.0083,0.51264 -0.05746,3.35357 0.04106,7.32663 0.0083,11.58378 2.240756,-0.20471 4.250179,-0.54983 5.69681,-1.05006 0.361656,-0.12506 0.689115,-0.26127 0.975651,-0.40514 0.143269,-0.0719 0.274298,-0.14658 0.396875,-0.22325 0.183864,-0.11499 0.345834,-0.23811 0.479557,-0.3638 0.0074,-0.007 0.01754,-0.01 0.02479,-0.0165 0.03698,-0.0359 0.06652,-0.0707 0.09922,-0.10749 0.01992,-0.0222 0.03954,-0.0436 0.05788,-0.0662 0.0177,-0.0219 0.03344,-0.0439 0.04961,-0.0661 0.0039,-0.005 0.0045,-0.0113 0.0083,-0.0165 0.06006,-0.0836 0.111077,-0.16846 0.148828,-0.25631 0.0049,-0.0115 0.01199,-0.0215 0.01654,-0.0331 0.01355,-0.0349 0.02312,-0.072 0.03307,-0.10749 0.0084,-0.0296 0.019,-0.0609 0.02479,-0.091 0.0037,-0.0194 0.0056,-0.0382 0.0083,-0.0579 0.0065,-0.0464 0.0079,-0.0931 0.0083,-0.14056 l 0,-0.008 0,-12.022004 z m -26.292969,0.214974 0,11.807033 c 0,0.0529 1.35e-4,0.10555 0.0083,0.1571 0.121994,0.77323 1.151432,1.40117 2.728516,1.88515 l 0,-11.765689 c -1.621391,-0.491604 -2.657803,-1.179486 -2.736784,-2.083594 z"
         id="path5660"
         stroke-width="0" />
    </g>
    <g
       transform="translate(-20.797392,120.44769)"
       id="g5662"
       gds_color="pattern"
       gds_togglable="spiral"
       style="display: none; visibility: collapse;">
      <path
         style="color: rgb(0, 0, 0); fill: rgb(122, 179, 0); fill-opacity: 1; fill-rule: nonzero; stroke: none; stroke-width: 18; marker: none; visibility: visible; display: inline; overflow: visible;"
         d="m 157.125,234 c -15.87743,3.94527 -28.67574,15.50483 -34.375,30.59375 0.33476,0.17729 0.6661,0.36634 1.03125,0.53125 14.7194,6.64748 42.09978,-17.82003 33.34375,-31.125 z m 24.96875,0.21875 c 6.93012,25.76856 -46.00471,55.01769 -62.5625,54.71875 l 0,25.0625 c 46.46151,-7.35138 87.94682,-46.5156 82.71875,-68.96875 -5.69282,-5.05338 -12.56198,-8.79709 -20.15625,-10.8125 z m 30.9375,24.46875 c 2.99778,42.42861 -71.61086,80.08537 -93.5,77.65625 l 0,7.125 c 0,5.38733 11.31045,8.98999 26.28125,10.8125 24.80049,-7.19653 60.03432,-23.38142 73.125,-53.6875 l 0,-18.375 c 0,-8.52831 -2.15152,-16.53219 -5.90625,-23.53125 z m 5.90625,67.53125 c -4.29819,10.64083 -14.61231,21.79031 -37.96875,29.15625 20.37321,-1.02969 37.96875,-4.93343 37.96875,-11.90625 z"
         id="path5664"
         inkscape:connector-curvature="0"
         sodipodi:nodetypes="ccsccccccccsccscccsc"
         transform="matrix(0.26458334,0,0,0.26458334,-6.3049604e-6,18.562493)"
         stroke-width="0" />
      <path
         inkscape:connector-curvature="0"
         style="color: rgb(0, 0, 0); fill: rgb(150, 220, 0); fill-opacity: 1; fill-rule: nonzero; stroke: none; stroke-width: 12; marker: none; visibility: visible; display: inline; overflow: visible;"
         d="m 157.15625,234.03125 c -1.70945,0.42472 -3.39794,0.93549 -5.03125,1.53125 -0.70867,0.25849 -1.40077,0.52317 -2.09375,0.8125 -0.0947,0.0395 -0.18689,0.0849 -0.28125,0.125 -0.69992,0.29737 -1.41091,0.60944 -2.09375,0.9375 -1.4488,0.69605 -2.85289,1.45307 -4.21875,2.28125 -0.68293,0.41409 -1.33934,0.86691 -2,1.3125 -0.63672,0.42944 -1.29116,0.85474 -1.90625,1.3125 -0.0466,0.0347 -0.0785,0.0901 -0.125,0.125 -0.58302,0.43708 -1.15614,0.88196 -1.71875,1.34375 -0.0922,0.0757 -0.18959,0.14241 -0.28125,0.21875 -0.54761,0.45612 -1.06657,0.92731 -1.59375,1.40625 -0.58769,0.53393 -1.15743,1.06368 -1.71875,1.625 -0.56132,0.56132 -1.12232,1.16231 -1.65625,1.75 -0.48424,0.533 -0.94535,1.07111 -1.40625,1.625 -0.11395,0.13695 -0.23125,0.26806 -0.34375,0.40625 -0.3845,0.47232 -0.7578,0.9509 -1.125,1.4375 -0.10271,0.13611 -0.21117,0.26905 -0.3125,0.40625 -0.78116,1.05768 -1.52203,2.16118 -2.21875,3.28125 -0.0993,0.15961 -0.21498,0.30792 -0.3125,0.46875 -0.0121,0.0199 -0.0192,0.0425 -0.0312,0.0625 -0.42534,0.70371 -0.82792,1.43006 -1.21875,2.15625 -0.2043,0.38037 -0.39912,0.76998 -0.59375,1.15625 -0.27888,0.55349 -0.55389,1.1223 -0.8125,1.6875 -0.0908,0.19849 -0.19297,0.39385 -0.28125,0.59375 -0.26001,0.58872 -0.51236,1.1807 -0.75,1.78125 -0.0938,0.23684 -0.15977,0.48011 -0.25,0.71875 0.3266,0.17357 0.64359,0.37029 1,0.53125 3.015,1.36162 6.5607,1.41723 10.21875,0.53125 3.48583,-7.29398 9.86486,-13.57175 21.375,-15.8125 3.48072,-5.44592 4.73897,-11.27688 1.78125,-15.8125 z m 24.9375,0.21875 c 1.69622,6.3495 -0.2471,12.91093 -4.375,19.1875 5.95244,5.21792 8.74196,14.44507 10.03125,24.53125 10.82072,-11.54131 16.63948,-23.63872 14.5,-32.90625 -0.005,-0.005 0.005,-0.0268 0,-0.0312 -0.44686,-0.39667 -0.91386,-0.77592 -1.375,-1.15625 -0.61304,-0.5055 -1.23764,-0.99269 -1.875,-1.46875 -0.63736,-0.47606 -1.27684,-0.92941 -1.9375,-1.375 -0.56009,-0.37776 -1.11134,-0.76982 -1.6875,-1.125 -0.10337,-0.0637 -0.20862,-0.12454 -0.3125,-0.1875 -0.71054,-0.43083 -1.45398,-0.82314 -2.1875,-1.21875 -0.68057,-0.36656 -1.3631,-0.72719 -2.0625,-1.0625 -0.16826,-0.0808 -0.33068,-0.17101 -0.5,-0.25 -0.20745,-0.0966 -0.41598,-0.18745 -0.625,-0.28125 -0.67094,-0.30109 -1.34469,-0.5718 -2.03125,-0.84375 -0.84868,-0.33617 -1.72255,-0.64709 -2.59375,-0.9375 -0.0531,-0.0177 -0.10305,-0.045 -0.15625,-0.0625 -0.0311,-0.0103 -0.0626,-0.0211 -0.0937,-0.0312 -0.63943,-0.20935 -1.28675,-0.40964 -1.9375,-0.59375 -0.25651,-0.0725 -0.52304,-0.11901 -0.78125,-0.1875 z m 30.9375,24.4375 c 1.17253,16.59519 -9.53822,32.44668 -24.3125,45.46875 -0.0448,2.39492 -0.12045,4.7855 -0.15625,6.875 -0.12418,7.24783 -0.0244,15.3348 0.0312,23.875 12.79901,-8.58999 24.094,-19.84377 30.34375,-34.3125 l 0,-18.34375 c 0,-0.0105 10e-6,-0.0208 0,-0.0312 0,-0.84649 -0.0206,-1.69556 -0.0625,-2.53125 -0.003,-0.0521 0.003,-0.10415 0,-0.15625 -0.0207,-0.38782 -0.0642,-0.77089 -0.0937,-1.15625 -0.063,-0.8233 -0.14741,-1.62625 -0.25,-2.4375 -0.11831,-0.93556 -0.26801,-1.86303 -0.4375,-2.78125 -0.0171,-0.093 -0.0137,-0.18844 -0.0312,-0.28125 -0.0418,-0.21929 -0.0804,-0.43801 -0.125,-0.65625 -0.16039,-0.78786 -0.33428,-1.57016 -0.53125,-2.34375 -0.006,-0.0224 -0.0255,-0.0401 -0.0312,-0.0625 -0.0802,-0.31306 -0.16395,-0.6269 -0.25,-0.9375 -0.13417,-0.48233 -0.25809,-0.96126 -0.40625,-1.4375 -0.0488,-0.15767 -0.1059,-0.31176 -0.15625,-0.46875 -0.0101,-0.0314 -0.0211,-0.0624 -0.0312,-0.0937 -0.30108,-0.92845 -0.64706,-1.84657 -1,-2.75 -0.16307,-0.4174 -0.32617,-0.8382 -0.5,-1.25 -0.21569,-0.51167 -0.42412,-1.02859 -0.65625,-1.53125 -0.0294,-0.0638 -0.064,-0.12389 -0.0937,-0.1875 -0.39214,-0.83965 -0.81371,-1.65548 -1.25,-2.46875 z m -83.125,28.25 c -4.10795,1.32761 -7.69458,2.04215 -10.34375,2 l 0,25.0625 c 3.4819,-0.55199 6.93542,-1.32993 10.34375,-2.21875 l 0,-24.34375 c 0,-0.16085 -8.5e-4,-0.33657 0,-0.5 z m 89.03125,39.28125 c -3.79682,9.39962 -12.31505,19.1714 -30.34375,26.40625 -0.004,0.73821 0.006,1.44456 0,2.1875 3.17588,-0.29015 6.23157,-0.64801 9.09375,-1.09375 0.95406,-0.14858 1.87168,-0.30275 2.78125,-0.46875 0.90957,-0.166 1.79599,-0.34777 2.65625,-0.53125 0.6008,-0.12814 1.17524,-0.2383 1.75,-0.375 0.26028,-0.0617 0.49529,-0.12403 0.75,-0.1875 0.0327,-0.008 0.0611,-0.0231 0.0937,-0.0312 1.55052,-0.38914 3.02157,-0.7952 4.34375,-1.25 0.70642,-0.24299 1.36633,-0.51941 2,-0.78125 0.61487,-0.25407 1.20851,-0.50936 1.75,-0.78125 0.54149,-0.27189 1.03672,-0.55399 1.5,-0.84375 0.69492,-0.43464 1.30709,-0.89995 1.8125,-1.375 0.0169,-0.0158 0.0459,-0.0154 0.0625,-0.0312 0.14654,-0.14055 0.27714,-0.29342 0.40625,-0.4375 0.0399,-0.0444 0.0868,-0.0802 0.125,-0.125 0.10558,-0.1237 0.18871,-0.24873 0.28125,-0.375 0.12335,-0.16737 0.21262,-0.32811 0.3125,-0.5 0.0999,-0.17189 0.20544,-0.35483 0.28125,-0.53125 0.0758,-0.17642 0.13636,-0.35029 0.1875,-0.53125 0.0256,-0.0905 0.0432,-0.18963 0.0625,-0.28125 0.0106,-0.0526 0.0228,-0.10327 0.0312,-0.15625 0.0323,-0.20191 0.061,-0.41765 0.0625,-0.625 1.6e-4,-0.0105 -8e-5,-0.0207 0,-0.0312 l 0,-0.0312 0,-17.21875 z m -89.03125,9.21875 c -4.08756,0.86687 -7.6254,1.20273 -10.34375,0.90625 l 0,7.09375 c 0,1.19845 0.55799,2.32147 1.59375,3.34375 0.51788,0.51114 1.1613,1.0014 1.90625,1.46875 1.24158,0.77892 2.76889,1.49833 4.5625,2.15625 0.71744,0.26317 1.4865,0.5061 2.28125,0.75 l 0,-15.71875 z"
         transform="matrix(0.26458334,0,0,0.26458334,-6.3049604e-6,18.562493)"
         id="path5666"
         stroke-width="0" />
    </g>
    <g
       id="g3893"
       gds_color="pattern"
       gds_togglable="dip"
       style="display: none; visibility: collapse;">
      <g
         gds_color="pattern"
         gds_togglable="dip"
         transform="translate(43.761516,-68.602396)"
         id="g5751"
         style="visibility: collapse; display: none;">
        <path
           style="color: rgb(0, 0, 0); fill: rgb(122, 179, 0); fill-opacity: 1; fill-rule: nonzero; stroke: none; stroke-width: 18; marker: none; visibility: visible; display: inline; overflow: visible;"
           d="m -19.78588,269.13121 c -6.84553,0 -12.4405,5.17851 -13.088607,11.84837 -0.438991,4.28017 27.0469298,4.17042 26.1689458,0 -0.648388,-6.66956 -6.2350178,-11.84837 -13.0803388,-11.84837 z"
           id="path5686"
           inkscape:connector-curvature="0"
           sodipodi:nodetypes="sccs"
           stroke-width="0" />
        <path
           inkscape:connector-curvature="0"
           style="color: rgb(0, 0, 0); fill: rgb(150, 220, 0); fill-opacity: 1; fill-rule: nonzero; stroke: none; stroke-width: 12; marker: none; visibility: visible; display: inline; overflow: visible;"
           d="m -19.78588,269.13121 c -1.132454,0 -2.227142,0.14665 -3.274219,0.41341 -0.0051,10e-4 -0.0114,-0.001 -0.01654,0 -0.0084,0.002 -0.01641,0.006 -0.02481,0.008 -0.201796,0.0521 -0.405721,0.11235 -0.60358,0.17363 -0.41218,0.12766 -0.813674,0.27235 -1.207162,0.43822 -0.183152,0.0772 -0.366945,0.16291 -0.545703,0.24805 -0.02226,0.0106 -0.04395,0.0224 -0.06615,0.0331 -0.182453,0.0882 -0.359849,0.17662 -0.537435,0.27285 -0.161411,0.0875 -0.322351,0.17891 -0.479557,0.27285 -0.04147,0.0248 -0.08286,0.0492 -0.124024,0.0744 -0.03258,0.02 -0.06682,0.0376 -0.09922,0.0579 -0.129391,0.0808 -0.254042,0.16286 -0.380338,0.24805 -0.1748,0.11789 -0.352264,0.24611 -0.520899,0.37207 -0.168634,0.12595 -0.333893,0.25486 -0.496093,0.3886 -0.324401,0.2675 -0.62901,0.54633 -0.926042,0.84336 -0.135483,0.13548 -0.275683,0.27212 -0.405143,0.41341 -0.01185,0.0129 -0.02127,0.0284 -0.03307,0.0413 -0.120957,0.13308 -0.240073,0.26714 -0.355534,0.40515 -0.02006,0.024 -0.03799,0.0503 -0.05788,0.0744 -0.133747,0.1622 -0.262649,0.32746 -0.388607,0.49609 -0.125957,0.16864 -0.245906,0.33783 -0.363802,0.51263 -0.117896,0.1748 -0.237704,0.35674 -0.347266,0.53744 -0.10314,0.1701 -0.202136,0.33754 -0.297656,0.51263 -0.01767,0.0324 -0.0322,0.0666 -0.04961,0.0992 -0.07855,0.14683 -0.150172,0.29635 -0.223242,0.44648 -0.02429,0.0499 -0.05074,0.0986 -0.07441,0.14883 -0.05422,0.11514 -0.106143,0.2303 -0.157096,0.34726 -0.0301,0.0691 -0.062,0.137 -0.09095,0.20671 -0.07297,0.17573 -0.141221,0.35791 -0.206706,0.53744 -0.0637,0.17462 -0.125465,0.35111 -0.181901,0.52916 -0.01479,0.0467 -0.02706,0.0937 -0.04134,0.14056 -0.01349,0.0443 -0.0283,0.0878 -0.04134,0.13229 -0.100388,0.3426 -0.183565,0.68804 -0.256315,1.0418 -0.0035,0.0169 -0.01312,0.0327 -0.01654,0.0496 -0.0066,0.0329 -0.01016,0.0662 -0.01654,0.0992 -0.03372,0.17408 -0.06413,0.35266 -0.09095,0.52917 -0.03313,0.21807 -0.06032,0.43166 -0.08268,0.65319 -0.0039,0.0383 -0.0047,0.0774 -0.0083,0.11575 -0.02938,0.83131 1.01251,1.48884 2.687175,1.98438 0.102698,-3.79285 1.281493,-9.54981 9.310026,-9.54981 4.873799,0 6.005717,5.31532 6.217709,10.45104 4.456782,-0.39063 7.9724878,-1.31486 7.9705728,-2.76158 -8.4e-5,-0.0632 -0.0028,-0.12501 -0.01654,-0.19017 -0.02026,-0.20843 -0.04462,-0.41472 -0.07441,-0.62012 -0.05143,-0.35459 -0.119505,-0.70541 -0.198437,-1.05007 -0.01256,-0.0548 -0.01983,-0.11087 -0.03307,-0.16536 -0.01283,-0.0529 -0.02787,-0.10444 -0.04134,-0.1571 -0.03743,-0.14616 -0.08176,-0.28582 -0.124024,-0.42994 -0.05705,-0.19498 -0.116221,-0.38773 -0.181901,-0.57878 -0.04672,-0.13589 -0.09784,-0.27133 -0.148828,-0.40514 -0.02059,-0.0539 -0.0366,-0.11178 -0.05788,-0.16537 -0.03411,-0.0861 -0.07163,-0.17118 -0.107486,-0.25631 -0.04268,-0.10125 -0.08717,-0.19774 -0.132292,-0.29766 -0.08227,-0.18253 -0.16608,-0.35951 -0.256315,-0.53743 -0.08189,-0.16147 -0.168051,-0.32206 -0.256315,-0.47956 -0.009,-0.0161 -0.01569,-0.0335 -0.0248,-0.0496 -0.0633,-0.11184 -0.131988,-0.22098 -0.198438,-0.33073 -0.07752,-0.12785 -0.158062,-0.25541 -0.239778,-0.38034 -0.03378,-0.0517 -0.06473,-0.1059 -0.09922,-0.1571 -0.03227,-0.0478 -0.06634,-0.0932 -0.09922,-0.14056 -0.08695,-0.12551 -0.173416,-0.24981 -0.264583,-0.37207 -0.0271,-0.0363 -0.05521,-0.0715 -0.08268,-0.10748 -0.100648,-0.1321 -0.200441,-0.26054 -0.305925,-0.38861 -0.01989,-0.0241 -0.03782,-0.0504 -0.05788,-0.0744 -0.126671,-0.15155 -0.263592,-0.30088 -0.3968748,-0.44648 -0.128812,-0.14053 -0.262106,-0.27864 -0.396875,-0.41342 -0.144317,-0.14431 -0.287308,-0.2842 -0.438217,-0.42167 -0.0044,-0.004 -0.01212,-0.004 -0.01654,-0.008 -0.142376,-0.12935 -0.28194,-0.25729 -0.429948,-0.38034 -0.01353,-0.0113 -0.02777,-0.0219 -0.04134,-0.0331 -0.1622,-0.13375 -0.327459,-0.26265 -0.496094,-0.38861 -0.168635,-0.12596 -0.346099,-0.25417 -0.520898,-0.37207 -0.158219,-0.10671 -0.316501,-0.20603 -0.479558,-0.30592 -0.041,-0.0251 -0.08272,-0.0497 -0.124023,-0.0744 -0.157206,-0.0939 -0.318146,-0.18539 -0.479557,-0.27286 -0.177587,-0.0962 -0.354982,-0.18468 -0.537435,-0.27285 -0.02233,-0.0108 -0.04375,-0.0224 -0.06615,-0.0331 -0.178758,-0.0851 -0.362551,-0.17084 -0.545703,-0.24805 -0.196744,-0.0829 -0.39376,-0.15799 -0.595313,-0.23151 -0.201552,-0.0735 -0.405759,-0.14287 -0.611849,-0.2067 -0.197859,-0.0613 -0.401784,-0.12153 -0.603581,-0.17363 -0.0084,-0.002 -0.01643,-0.006 -0.0248,-0.008 -0.0052,-10e-4 -0.01132,0.001 -0.01654,0 -0.415703,-0.10591 -0.834291,-0.19087 -1.265039,-0.25632 -0.654222,-0.0994 -1.326324,-0.1571 -2.009179,-0.1571 z"
           id="path5650-6"
           stroke-width="0" />
      </g>
      <path
         inkscape:connector-curvature="0"
         id="path5652-9"
         d="m 20.281439,202.38532 c -5.816635,1.64622 -4.719156,6.47512 -0.658487,6.03613 4.060669,-0.43899 5.048398,-3.62168 4.280164,-5.15815 -0.768236,-1.53647 -3.621677,-0.87798 -3.621677,-0.87798 z"
         style="color: rgb(0, 0, 0); fill: rgb(150, 220, 0); fill-opacity: 1; fill-rule: nonzero; stroke: none; stroke-width: 15; marker: none; visibility: visible; display: inline; overflow: visible;"
         stroke-width="0" />
      <path
         inkscape:connector-curvature="0"
         id="path5652-9-0"
         d="m 14.261357,208.31789 c -2.11855,2.81816 0.0961,4.67201 1.825902,3.0343 1.729799,-1.63772 1.064362,-3.46381 0.165197,-3.9057 -0.899167,-0.44189 -1.991099,0.8714 -1.991099,0.8714 z"
         style="color: rgb(0, 0, 0); fill: rgb(150, 220, 0); fill-opacity: 1; fill-rule: nonzero; stroke: none; stroke-width: 15; marker: none; visibility: visible; display: inline; overflow: visible;"
         stroke-width="0" />
    </g>
    <g
       id="g3953"
       gds_color="pattern"
       gds_togglable="stripes"
       style="display: none; visibility: collapse;">
      <path
         id="path3902"
         d="m 23.976953,200.52809 c -4.16104,0 -7.855047,1.92062 -10.260872,4.9196 -3.085141,3.18346 21.019456,4.51742 20.521745,0 -2.405824,-2.99898 -6.099832,-4.9196 -10.260873,-4.9196 z m -12.369271,8.75605 c -0.516376,1.41297 -0.802018,2.93495 -0.802018,4.53099 l 0,3.36517 c 0,3.73304 26.301238,3.40926 26.301238,0 l 0,-3.36517 c 0,-1.59602 -0.277389,-3.11804 -0.79375,-4.53099 0.737431,2.75214 -25.953343,4.65713 -24.70547,0 z m -0.802018,11.41016 0,7.68119 c -0.05957,3.77468 26.793208,3.96354 26.301238,0 l 0,-7.2347 c -1.071338,3.18153 -25.514654,4.13975 -26.301238,-0.44649 z m 26.301238,0.44649 c 0.04883,-0.14503 0.05276,-0.29253 0,-0.44649 l 0,0.44649 z"
         style="color: rgb(0, 0, 0); fill: rgb(122, 179, 0); fill-opacity: 1; fill-rule: nonzero; stroke: none; stroke-width: 12; marker: none; visibility: visible; display: inline; overflow: visible;"
         inkscape:connector-curvature="0"
         stroke-width="0" />
      <path
         id="path3923"
         d="m 23.985222,200.53636 c -0.227619,0 -0.453287,0.005 -0.677995,0.0165 -0.224708,0.0113 -0.4482,0.0273 -0.669727,0.0496 -0.207553,0.0209 -0.415587,0.044 -0.620117,0.0744 -0.01377,0.002 -0.02759,0.006 -0.04134,0.008 -0.0081,0.001 -0.01667,-10e-4 -0.0248,0 -0.198744,0.0306 -0.399663,0.0682 -0.595312,0.10748 -0.01954,0.004 -0.03837,0.0125 -0.05788,0.0165 -0.205667,0.0423 -0.40987,0.0888 -0.611849,0.14056 -0.210356,0.0539 -0.414028,0.1098 -0.620117,0.17363 -0.177174,0.055 -0.355337,0.11145 -0.529167,0.17364 -0.02784,0.01 -0.05493,0.023 -0.08268,0.0331 -0.202348,0.0739 -0.406084,0.14805 -0.603581,0.23151 -0.194384,0.0821 -0.389355,0.17358 -0.578776,0.26458 -0.189455,0.091 -0.37801,0.1897 -0.562239,0.28939 -0.0021,0.001 -0.0061,-0.001 -0.0083,0 -0.163249,0.0885 -0.32061,0.17777 -0.479557,0.27285 -0.04147,0.0248 -0.08285,0.0492 -0.124023,0.0744 -0.103493,0.0636 -0.204368,0.13207 -0.305925,0.19843 -0.0997,0.065 -0.19987,0.13081 -0.297656,0.19844 -0.131244,0.0908 -0.260916,0.18575 -0.388607,0.28112 -0.157551,0.11787 -0.311073,0.23914 -0.463021,0.3638 -0.03324,0.0272 -0.06625,0.0551 -0.09922,0.0827 -0.138897,0.1161 -0.279502,0.23388 -0.413411,0.35554 -0.326845,0.29694 -0.630686,0.606 -0.926042,0.93431 -0.05127,0.0569 -0.09855,0.11583 -0.148828,0.17363 -0.08953,0.10305 -0.178264,0.20835 -0.264584,0.31419 -0.0236,0.0289 -0.05105,0.0536 -0.07441,0.0827 -0.06523,0.0814 -0.126857,0.16508 -0.190169,0.24804 -0.0075,0.0139 -0.01835,0.0276 -0.02481,0.0413 -0.325,0.69328 0.671358,1.28333 2.364714,1.72806 1.377321,-1.52139 3.561066,-2.58795 7.019726,-2.58795 2.453593,0 3.96007,1.35364 4.878256,3.34863 3.715702,-0.30658 6.650995,-1.17185 6.474023,-2.77812 -0.300728,-0.37488 -0.619733,-0.73535 -0.959114,-1.07487 -0.161417,-0.16149 -0.326467,-0.31835 -0.496094,-0.47129 -0.0086,-0.008 -0.01614,-0.0171 -0.02479,-0.0248 -0.02463,-0.0221 -0.04961,-0.0442 -0.07441,-0.0661 -0.155162,-0.13707 -0.317976,-0.26717 -0.479557,-0.39688 -0.115041,-0.0921 -0.229084,-0.18458 -0.347266,-0.27285 -0.04736,-0.0355 -0.09271,-0.0727 -0.14056,-0.10749 -0.02714,-0.0197 -0.05538,-0.0384 -0.08268,-0.0579 -0.01913,-0.0137 -0.03866,-0.0277 -0.05788,-0.0414 -0.174144,-0.12334 -0.35713,-0.2406 -0.537435,-0.35553 -0.0064,-0.004 -0.01013,-0.0125 -0.01654,-0.0165 -0.159739,-0.10142 -0.323502,-0.19476 -0.487839,-0.28938 -0.04215,-0.0242 -0.08158,-0.0507 -0.124023,-0.0744 -0.127463,-0.0715 -0.25854,-0.13935 -0.388607,-0.2067 -0.08504,-0.0438 -0.170196,-0.0903 -0.256315,-0.1323 -0.02448,-0.012 -0.04985,-0.0212 -0.07441,-0.0331 -0.01896,-0.009 -0.03887,-0.0158 -0.05788,-0.0248 -0.173446,-0.0826 -0.343316,-0.16461 -0.520898,-0.23978 -0.0024,-9.8e-4 -0.0059,9.8e-4 -0.0083,0 -0.208742,-0.0882 -0.422502,-0.17046 -0.636654,-0.24805 -0.108696,-0.0392 -0.220705,-0.0711 -0.330729,-0.10749 -0.09317,-0.031 -0.18702,-0.062 -0.28112,-0.0909 -0.192904,-0.0591 -0.382153,-0.11501 -0.578776,-0.16536 -0.183241,-0.0469 -0.367686,-0.0931 -0.553971,-0.13229 -0.06012,-0.0127 -0.121474,-0.0212 -0.181901,-0.0331 -0.163412,-0.032 -0.330535,-0.0651 -0.496094,-0.091 -0.05531,-0.009 -0.109822,-0.0168 -0.165365,-0.0248 -0.17711,-0.0254 -0.349804,-0.0478 -0.529166,-0.0661 -0.0248,-0.003 -0.04958,-0.006 -0.07442,-0.008 -0.202547,-0.0196 -0.406658,-0.031 -0.611849,-0.0413 -0.224708,-0.0113 -0.450376,-0.0165 -0.677994,-0.0165 z m -12.37754,8.76432 c -0.06271,0.17223 -0.126254,0.34534 -0.181901,0.5209 -0.0087,0.0275 -0.01628,0.0551 -0.02481,0.0827 -0.127656,0.41218 -0.235188,0.83634 -0.322461,1.26504 -0.04364,0.21435 -0.08262,0.42685 -0.115755,0.64492 -0.06627,0.43615 -0.109659,0.88177 -0.132292,1.33119 -0.01132,0.22471 -0.01654,0.45037 -0.01654,0.67799 l 0,3.43959 c 0.07477,0.70658 1.118598,1.25646 2.736784,1.67018 l 0,-3.73724 c 0,-1.11065 0.07254,-2.4578 0.396875,-3.80339 -1.644393,-0.4498 -2.584156,-1.13361 -2.339909,-2.09186 z m 24.70547,0 c 0.231862,1.00824 -3.211111,1.90244 -7.598503,2.39779 0.449342,2.59966 0.442748,5.49807 0.396875,7.9375 4.469379,-0.37336 7.995378,-1.20749 7.995378,-2.45567 l 0,-3.3569 0,-0.008 c 0,-0.22471 -0.0056,-0.44804 -0.01654,-0.66972 -0.004,-0.0804 -0.01106,-0.15976 -0.01654,-0.23978 -0.0091,-0.13259 -0.02013,-0.26541 -0.03307,-0.39688 -0.0011,-0.011 0.0011,-0.0221 0,-0.0331 -0.01423,-0.14109 -0.03098,-0.28196 -0.04961,-0.42168 -0.004,-0.0307 -0.01228,-0.0603 -0.01654,-0.091 -0.01894,-0.13608 -0.0431,-0.27047 -0.06615,-0.40514 -0.0043,-0.0247 -0.0039,-0.0498 -0.0083,-0.0744 -0.01868,-0.10556 -0.0367,-0.20952 -0.05788,-0.31419 -0.0034,-0.0165 -0.0049,-0.0332 -0.0083,-0.0496 -0.04102,-0.19762 -0.09083,-0.39284 -0.14056,-0.58704 -0.01408,-0.055 -0.02658,-0.11067 -0.04134,-0.16537 -0.04181,-0.15532 -0.08494,-0.30999 -0.132292,-0.46302 -0.0085,-0.0275 -0.01614,-0.0552 -0.02479,-0.0827 -0.05565,-0.17556 -0.119195,-0.34867 -0.181902,-0.5209 z m -25.49922,11.42669 0,7.7308 c 0.06477,0.71289 1.107779,1.2992 2.736784,1.7446 l 0,-7.45795 c -1.545574,-0.48932 -2.565871,-1.15214 -2.736784,-2.01745 z m 26.29297,0.41342 c -0.385723,1.14547 -3.802486,2.00061 -8.053256,2.41432 -0.0046,2.3173 0.03307,4.86152 0.03307,7.54889 4.404112,-0.33894 7.895601,-1.17921 8.020183,-2.54661 0.0054,-0.0599 0.0077,-0.11997 0,-0.1819 l 0,-7.2347 z"
         style="color: rgb(0, 0, 0); fill: rgb(150, 220, 0); fill-opacity: 1; fill-rule: nonzero; stroke: none; stroke-width: 12; marker: none; visibility: visible; display: inline; overflow: visible;"
         inkscape:connector-curvature="0"
         stroke-width="0" />
      <path
         inkscape:connector-curvature="0"
         id="path5652"
         d="m 20.247958,201.99777 c -5.816635,1.64622 -4.719156,6.47512 -0.658487,6.03613 4.060669,-0.439 5.048398,-3.62168 4.280163,-5.15815 -0.768236,-1.53647 -3.621676,-0.87798 -3.621676,-0.87798 z"
         style="color: rgb(0, 0, 0); fill: rgb(150, 220, 0); fill-opacity: 1; fill-rule: nonzero; stroke: none; stroke-width: 15; marker: none; visibility: visible; display: inline; overflow: visible;"
         stroke-width="0" />
    </g>
  </g>
</svg>
